<?xml version="1.0"?><svg width="128" height="128" xmlns="http://www.w3.org/2000/svg" xmlns:xlink="http://www.w3.org/1999/xlink">
 <defs>
  <linearGradient id="linearGradient2057">
   <stop stop-color="#000000" offset="0" id="stop2059"/>
   <stop stop-color="#000000" stop-opacity="0" offset="1" id="stop2061"/>
  </linearGradient>
  <radialGradient xlink:href="#linearGradient2057" r="8.251929" id="radialGradient1535" gradientUnits="userSpaceOnUse" gradientTransform="scale(1.395230,0.716728)" fy="222.04396" fx="14.207293" cy="222.04396" cx="14.207293"/>
 </defs>
 <g>
  <title>Layer 1</title>
  <g id="layer1">
   <g transform="matrix(2.469674,0.000000,0.000000,2.469674,-113.4758,-293.6608)" id="g1881">
    <path fill="#00b300" fill-rule="evenodd" stroke-width="1px" id="path2825" d="m70.859749,130.145004c-0.140923,0.023682 -1.135696,0.189468 -1.799911,0.189468c-0.72728,0 -1.430756,0.310333 -2.084114,0.473663c-0.533867,0.133469 -1.334869,0.958817 -1.610443,1.326248c-0.39872,0.531631 -0.842064,0.936798 -1.326263,1.42099c-0.445988,0.445999 -0.982098,0.887375 -1.326248,1.231522c-0.280289,0.280289 -0.274399,1.192337 -0.378929,1.610443c-0.150398,0.601624 -0.749279,1.317688 -1.13678,1.705185c-0.617001,0.616989 -0.922428,1.027176 -1.231518,1.799911c-0.273891,0.684708 -0.378933,1.207581 -0.378933,1.98938c0,0.73848 -0.036629,1.332581 0.09473,1.98938c0.149361,0.746811 0.262939,1.329483 0.757862,1.98938c0.397747,0.530319 1.038849,0.944122 1.515709,1.42099c0.414669,0.414658 0.838051,0.513748 1.32626,0.757843c0.526772,0.263397 0.6035,0.5439 0.852589,1.042068c0.286705,0.57341 0.270035,1.203171 0.56839,1.799896c0.242424,0.484848 0.947998,1.018555 1.42099,1.136795c0.617355,0.154343 1.224724,0.495651 1.894638,0.663132c0.950996,0.237747 2.135284,0.094727 3.126167,0.094727c1.293388,0 2.537354,-0.44487 3.789299,-0.757858c0.5401,-0.135025 0.98185,-0.443558 1.42099,-0.663132c0.590569,-0.295288 0.708534,-0.659241 0.947304,-1.13678c0.2686,-0.537186 0.313187,-0.713776 0.708572,-1.109161c0.429344,-0.429352 1.192528,-0.938339 1.849197,-1.069687c0.728531,-0.145691 0.83654,-0.579071 1.43882,-0.880203c0.663307,-0.33165 1.565742,-1.23111 2.161011,-1.677567c0.559853,-0.419876 0.828751,-1.11293 1.326256,-1.610443c0.496155,-0.496155 0.378929,-1.210663 0.378929,-1.894638c0,-0.596375 -0.663155,-1.257477 -0.807152,-1.833481c-0.13916,-0.556656 -0.073669,-1.109299 -0.424362,-1.576889c-0.52948,-0.705978 -1.185028,-1.279755 -1.799919,-1.894653c-0.598732,-0.598724 -1.345276,-0.682159 -1.989372,-1.326248c-0.562119,-0.562103 -0.926514,-1.30545 -1.515717,-1.894638c-1.156937,-1.156952 -2.49527,-1.735382 -3.889969,-2.607071c-0.597153,-0.373215 -1.476204,0.066086 -2.078171,-0.234909c-0.590347,-0.295181 -1.196068,-0.111343 -1.799911,-0.473663z"/>
    <path fill="url(#radialGradient1535)" fill-rule="evenodd" stroke-width="2" stroke-miterlimit="4" id="path1317" d="m78.424591,160.743546a7.94377,4.08071 0 1 1 -15.88755,0a7.94377,4.08071 0 1 1 15.88755,0z"/>
    <path fill="#5c2700" id="path1689" d="m70.871223,129.791336c-1.32003,0 -5.6875,1.160141 -5.6875,1.90625c0,0.294189 -1.118935,1.42897 -2.281242,2.3125c-0.829941,0.63089 -1.039101,0.937241 -0.9375,1.46875c0.088039,0.460464 -0.077209,0.924118 -0.5625,1.46875c-1.030361,1.156433 -2.272591,3.462051 -2.53125,4.71875c-0.1959,0.951828 -0.090591,1.379776 0.78125,3.21875c0.95187,2.007736 1.065369,2.134064 2.34375,2.59375c1.397999,0.502716 2.267578,1.396439 2,2.09375c-0.086712,0.225952 0.223938,0.942657 0.718742,1.59375c0.696159,0.916031 1.253799,1.281998 2.53125,1.71875c1.58551,0.542068 1.60466,0.579147 1.5625,1.5c-0.119957,2.620102 -0.428665,3.547318 -1.5,4.5625c-1.065903,1.010056 -1.38575,1.96875 -0.65625,1.96875c0.217865,0 0.50486,-0.12471 0.625,-0.3125c0.12014,-0.187759 0.61924,-0.636414 1.09375,-0.96875c0.922394,-0.646072 1.296364,-0.503326 1.5,0.59375c0.055443,0.298721 0.31337,0.602249 0.59375,0.65625c0.428665,0.08255 0.479424,-0.038483 0.375,-0.75c-0.096451,-0.657242 -0.009766,-0.84375 0.34375,-0.84375c0.250313,0 0.590294,0.27449 0.75,0.625c0.239334,0.525269 0.490089,0.655884 1.46875,0.65625c0.653053,0.000259 1.549355,0.198669 2,0.4375c1.598946,0.847397 1.241264,-0.050934 -0.90625,-2.21875c-1.19722,-1.208542 -2.270676,-2.45256 -2.375,-2.78125c-0.104317,-0.32869 -0.095016,-1.116302 0,-1.75c0.155777,-1.038712 0.307495,-1.201553 1.46875,-1.78125c0.708473,-0.353653 1.546494,-0.628998 1.875,-0.59375c0.662849,0.071152 1.71875,-0.831512 1.71875,-1.46875c0,-0.225327 0.131027,-0.40625 0.28125,-0.40625c0.150223,0 0.28125,-0.131027 0.28125,-0.28125c0,-0.577103 -0.838387,-0.23764 -1,0.40625c-0.158646,0.632126 -1.364563,1.213669 -2.5,1.21875c-0.187775,0.000839 -0.34375,0.11731 -0.34375,0.25c0,0.336777 -1.036507,0.576157 -1.21875,0.28125c-0.259697,-0.420181 0.951416,-1.758469 2.8125,-3.125c2.76561,-2.030624 3.49276,-2.970932 4.3125,-5.53125c0.577209,-1.802719 0.638817,-2.338379 0.375,-2.65625c-0.182007,-0.219299 -0.433327,-0.329819 -0.5625,-0.25c-0.363541,0.224701 -0.996483,1.774628 -1.1875,2.90625c-0.105637,0.625809 -0.37677,1.160751 -0.71875,1.34375c-0.306847,0.16423 -0.51313,0.361862 -0.4375,0.4375c0.321693,0.321686 -3.57299,4.1875 -4.21875,4.1875c-0.1007,0 -0.19754,-1.328323 -0.21875,-2.9375c-0.041504,-3.151337 -0.226715,-3.597198 -1.28125,-2.90625c-0.526657,0.345078 -0.592545,0.50386 -0.34375,0.96875c0.186615,0.348679 0.214386,1.136017 0.09375,2.09375c-0.106064,0.842239 -0.173424,2.176376 -0.15625,2.96875c0.027344,1.261551 -0.050797,1.482407 -0.59375,1.6875c-0.525856,0.198669 -0.67366,0.100601 -1.0625,-0.625c-0.486855,-0.908493 -1.739647,-2.049362 -3.125,-2.875c-0.691277,-0.411987 -1.882645,-2.226059 -1.8125,-2.75c0.054504,-0.407089 -0.604435,-1.172668 -1.218742,-1.40625c-0.96682,-0.367569 -1.022602,-0.208633 -0.34375,1c0.322269,0.573792 0.634888,1.289291 0.6875,1.5625c0.166161,0.862793 1.178909,2.055481 2.812492,3.3125c1.537727,1.183258 2.5,2.297546 2.5,2.90625c0,0.201035 -0.44162,0.248611 -1.3125,0.125c-1.012413,-0.143692 -1.463547,-0.395615 -2.15625,-1.15625c-0.488205,-0.536102 -0.90625,-1.187408 -0.90625,-1.4375c0,-0.908051 -0.858982,-2.194138 -1.593742,-2.375c-1.250023,-0.307678 -1.862713,-0.86911 -2.65625,-2.4375c-0.989613,-1.955948 -0.948681,-3.31134 0.1875,-5.53125c0.472118,-0.922424 0.960808,-1.65625 1.09375,-1.65625c0.132957,0 0.250008,-0.151535 0.25,-0.3125c0.000008,-0.16095 0.18092,-0.462158 0.40625,-0.6875c0.225349,-0.225327 0.40617,-0.672729 0.40625,-1c0.000088,-0.376617 0.52433,-1.052994 1.406242,-1.8125c0.76635,-0.659958 1.483803,-1.532501 1.625,-1.9375c0.315384,-0.904724 3.467613,-1.432388 4.75,-1.46875c1.007774,-0.028549 1.368294,-0.71875 0.375,-0.71875zm1.9375,0.40625c-2.11232,-0.192413 -1.777603,0.26535 0.40625,0.5625c0.758286,0.103195 1.729004,0.447403 2.15625,0.75c0.427277,0.302597 1.412994,0.857208 2.1875,1.25c1.129539,0.572861 1.40625,0.858551 1.40625,1.40625c0,0.886612 0.470825,1.351547 1.6875,1.6875c1.1838,0.326859 2.107353,1.280899 2.8125,2.875c0.286873,0.648544 0.653847,1.15625 0.8125,1.15625c0.35537,0 0.375076,-0.443756 0.03125,-0.65625c-0.138664,-0.085693 -0.313583,-0.515549 -0.40625,-0.9375c-0.092674,-0.421951 -0.619347,-1.19725 -1.15625,-1.75c-0.902786,-0.929459 -1.251076,-1.123779 -1.8125,-1.03125c-0.395966,0.065262 -1.221786,-0.919479 -1.40625,-1.6875c-0.100754,-0.41954 -0.366585,-0.8405 -0.625,-0.9375c-0.2584,-0.09697 -1.354706,-0.728836 -2.40625,-1.375c-1.564766,-0.961548 -2.234497,-1.180145 -3.6875,-1.3125zm11.59375,10.0625c-0.094971,0.094986 -0.04258,0.550491 0.125,1.03125c0.167595,0.480759 0.312515,1.149658 0.3125,1.5c0,0.834412 -1.553337,2.902252 -2.59375,3.4375c-0.450653,0.231842 -0.857033,0.622284 -0.90625,0.875c-0.07225,0.370987 0.096123,0.320984 0.9375,-0.25c1.167053,-0.791962 1.624176,-1.244415 2.53125,-2.53125c0.527397,-0.748169 0.602364,-1.081329 0.46875,-2.28125c-0.154533,-1.387878 -0.526703,-2.129547 -0.875,-1.78125zm-4.0625,7.125c-0.353073,-0.091339 -0.775627,-0.107422 -1,0.03125c-0.244957,0.151398 -0.194336,0.287979 0.1875,0.4375c0.746986,0.292526 1.154373,0.275146 1.34375,-0.03125c0.104836,-0.169601 -0.178177,-0.346161 -0.53125,-0.4375zm-1.15625,0.78125c-0.613976,-0.120743 -1.570175,0.52359 -1.25,0.84375c0.248993,0.249008 0.625,0.215302 0.625,-0.0625c0,-0.13269 0.28701,-0.32579 0.625,-0.4375l0.59375,-0.21875l-0.59375,-0.125z"/>
   </g>
  </g>
 </g>
</svg>